<svg xmlns="http://www.w3.org/2000/svg" xmlns:xlink="http://www.w3.org/1999/xlink" width="80%" zoomAndPan="magnify" viewBox="0 0 375 374.999991" height="80%" preserveAspectRatio="xMidYMid meet" version="1.0"><defs><clipPath id="226178e3a7"><path d="M 23 37.5 L 352 37.5 L 352 54 L 23 54 Z M 23 37.5 " clip-rule="nonzero"/></clipPath><clipPath id="19e767516e"><path d="M 192 60.585938 L 365.304688 60.585938 L 365.304688 345.539062 L 192 345.539062 Z M 192 60.585938 " clip-rule="nonzero"/></clipPath><clipPath id="1d90011b63"><path d="M 9.832031 60.585938 L 183.683594 60.585938 L 183.683594 345.539062 L 9.832031 345.539062 Z M 9.832031 60.585938 " clip-rule="nonzero"/></clipPath></defs><path fill="#202020" d="M 187.570312 322.296875 C 187.285156 322.296875 187.019531 322.132812 186.910156 321.875 L 36.792969 62.003906 C 36.59375 61.660156 36.710938 61.226562 37.054688 61.027344 C 37.398438 60.828125 37.832031 60.945312 38.03125 61.289062 L 187.570312 320.152344 L 337.105469 61.289062 C 337.300781 60.945312 337.738281 60.828125 338.082031 61.027344 C 338.425781 61.226562 338.542969 61.660156 338.34375 62.003906 L 188.203125 321.914062 C 188.078125 322.136719 187.835938 322.296875 187.570312 322.296875 " fill-opacity="1" fill-rule="nonzero"/><g clip-path="url(#226178e3a7)"><path fill="#202020" d="M 342.894531 53.402344 C 342.773438 53.402344 342.648438 53.371094 342.539062 53.308594 C 342.199219 53.109375 342.082031 52.671875 342.277344 52.328125 L 349.902344 39.132812 L 25.234375 39.132812 L 32.859375 52.328125 C 33.058594 52.671875 32.9375 53.109375 32.597656 53.308594 C 32.253906 53.503906 31.820312 53.386719 31.621094 53.042969 L 23.375 38.773438 C 23.246094 38.554688 23.246094 38.277344 23.375 38.058594 C 23.5 37.835938 23.738281 37.699219 23.992188 37.699219 L 351.144531 37.699219 C 351.398438 37.699219 351.636719 37.835938 351.765625 38.058594 C 351.890625 38.277344 351.890625 38.554688 351.765625 38.773438 L 343.515625 53.042969 C 343.382812 53.273438 343.140625 53.402344 342.894531 53.402344 " fill-opacity="1" fill-rule="nonzero"/></g><path fill="#202020" d="M 337.722656 62.363281 L 337.699219 62.363281 C 337.300781 62.363281 336.984375 62.042969 336.984375 61.648438 C 336.984375 61.25 337.300781 60.933594 337.699219 60.933594 C 338.09375 60.933594 338.425781 61.25 338.425781 61.648438 C 338.425781 62.042969 338.121094 62.363281 337.722656 62.363281 " fill-opacity="1" fill-rule="nonzero"/><g clip-path="url(#19e767516e)"><path fill="#202020" d="M 201.011719 345.539062 C 200.757812 345.539062 200.523438 345.402344 200.394531 345.179688 L 192.136719 330.882812 C 191.9375 330.539062 192.058594 330.101562 192.402344 329.90625 C 192.742188 329.707031 193.179688 329.824219 193.378906 330.167969 L 201.011719 343.394531 L 363.347656 62.363281 L 348.078125 62.363281 C 347.679688 62.363281 347.363281 62.042969 347.363281 61.648438 C 347.363281 61.25 347.679688 60.933594 348.078125 60.933594 L 364.589844 60.933594 C 364.84375 60.933594 365.082031 61.066406 365.207031 61.289062 C 365.335938 61.511719 365.335938 61.78125 365.207031 62.003906 L 201.632812 345.179688 C 201.503906 345.402344 201.269531 345.539062 201.011719 345.539062 " fill-opacity="1" fill-rule="nonzero"/></g><path fill="#202020" d="M 186.9375 321.886719 L 36.820312 62.003906 C 36.621094 61.660156 36.738281 61.226562 37.082031 61.027344 C 37.425781 60.828125 37.859375 60.945312 38.058594 61.289062 L 188.1875 321.191406 L 187.578125 321.566406 L 186.9375 321.886719 " fill-opacity="1" fill-rule="nonzero"/><path fill="#202020" d="M 187.554688 322.269531 C 187.441406 322.269531 187.332031 322.246094 187.226562 322.1875 C 186.882812 322.003906 186.746094 321.59375 186.921875 321.246094 L 186.929688 321.226562 L 336.457031 62.363281 L 37.4375 62.363281 C 37.042969 62.363281 36.710938 62.042969 36.710938 61.648438 C 36.710938 61.25 37.015625 60.933594 37.410156 60.933594 L 337.699219 60.933594 C 337.953125 60.933594 338.191406 61.066406 338.320312 61.289062 C 338.445312 61.511719 338.445312 61.78125 338.320312 62.003906 L 188.1875 321.90625 C 188.054688 322.136719 187.808594 322.269531 187.554688 322.269531 " fill-opacity="1" fill-rule="nonzero"/><g clip-path="url(#1d90011b63)"><path fill="#202020" d="M 174.125 345.539062 C 173.867188 345.539062 173.632812 345.402344 173.503906 345.179688 L 9.929688 62.003906 C 9.800781 61.78125 9.800781 61.511719 9.929688 61.289062 C 10.054688 61.066406 10.292969 60.933594 10.546875 60.933594 L 27.058594 60.933594 C 27.453125 60.933594 27.773438 61.25 27.773438 61.648438 C 27.773438 62.042969 27.453125 62.363281 27.058594 62.363281 L 11.785156 62.363281 L 174.125 343.394531 L 181.757812 330.167969 C 181.957031 329.824219 182.394531 329.707031 182.738281 329.90625 C 183.078125 330.101562 183.195312 330.539062 182.996094 330.882812 L 174.742188 345.179688 C 174.613281 345.402344 174.378906 345.539062 174.125 345.539062 " fill-opacity="1" fill-rule="nonzero"/></g></svg>